{"title":"Alice Through the Looking Glass 2016 Unmarked 720P TC x264 Hive-","uid":14744685,"size":3677633587,"categoryP":"video","categoryS":"movies","magnet":"?xt=urn:btih:a869dc3fb7f5beeb483ab8b2bc9487eb071492b4&amp;dn=Alice+Through+the+Looking+Glass+2016+Unmarked+720P+TC+x264+Hive-&amp;tr=udp%3A%2F%2Ftracker.leechers-paradise.org%3A6969&amp;tr=udp%3A%2F%2Fzer0day.ch%3A1337&amp;tr=udp%3A%2F%2Fopen.demonii.com%3A1337&amp;tr=udp%3A%2F%2Ftracker.coppersurfer.tk%3A6969&amp;tr=udp%3A%2F%2Fexodus.desync.com%3A6969","seeders":5,"leechers":1,"uploader":"makintos13","files":3,"time":1464711928,"description":"Alice Through the Looking Glass 2016 Unmarked 720P TC x264 Hive-\r\n\r\n\r\nScreens:\r\n \nhttps://imgmak.com/TDc\r\n \nhttps://imgmak.com/TDn\r\n \nhttps://imgmak.com/TDr\r\n \nhttps://imgmak.com/TDB\r\n \nhttps://imgmak.com/TDI\r\n \nhttps://imgmak.com/TDq\r\n\r\n\r\nThx Hive\r\n\r\nCM8 Doing It Right The First Time \r\n\r\nSources:\r\n\r\nVideo: Unmarked 720p Chinese Telecine \r\nAudio: English Studio Audio,came with the Chinese Telecine\r\nthx\r\n\r\n\r\nNotes:\r\nAnother special Encode and first on the net completely unmarked,\r\ntried to get a source file that doesnt have watermarkings, took me a day longer to get, but the result is excellent,\r\nits a masterpiece from this source. Have done 720p and avi for this,looks and sounds perfect a real cinemafeeling.\r\nQuality is tested and optimized to look perfect on a 85&quot; 4K TV.\r\n\r\n\r\nEncode:\r\nQuality is same as on Angry birds, as perfect as it can be\r\nThe Chinese telecine needed some work,fixed brightness,contrast,and colours.\r\nNothing is cut from the movie\r\n\r\nStudioAudio was great and already lipsynced,lol\r\n\r\nRemoved cinavia too on this one,it should work\r\n\r\ngot very nice and will do me till retail\r\nenjoy\r\n\r\nPS: still waiting for the unmarked TC Xmen,cpl days left, lets wait and see\r\n\r\nVideo: 1280x700 @bitrate 4000-8000\r\nAudio: English Studio AC3 2.0\r\nSample: yes included\r\n\r\n \nhttp://www.imdb.com/title/tt2567026/\r\n\r\n\r\nGeneral\r\nComplete name                  : Alice.Through.the.Looking.Glass.2016.Unmarked.720P.TC.x264.Hive-CM8.mkv\r\nFormat                         : Matroska\r\nFormat version                 : Version 2\r\nFile size                      : 3.35 GiB\r\nDuration                       : 1h 52mn\r\nOverall bit rate mode          : Variable\r\nOverall bit rate               : 4 256 Kbps\r\nEncoded date                   : UTC 2016-05-31 00:24:40\r\nWriting application            : mkvmerge v5.6.0 ('Kenya Kane') built on May 27 2012 16:44:04\r\nWriting library                : libebml v1.2.3 + libmatroska v1.3.0\r\n\r\nVideo\r\nID                             : 1\r\nFormat                         : AVC\r\nFormat/Info                    : Advanced Video Codec\r\nFormat profile                 :   \r\nFormat settings, CABAC         : Yes\r\nFormat settings, ReFrames      : 5 frames\r\nFormat settings, GOP           : M=4, N=33\r\nMuxing mode                    : Header stripping\r\nCodec ID                       : V_MPEG4/ISO/AVC\r\nDuration                       : 1h 52mn\r\nBit rate mode                  : Variable\r\nBit rate                       : 3 915 Kbps\r\nMaximum bit rate               : 8 000 Kbps\r\nWidth                          : 1 280 pixels\r\nHeight                         : 700 pixels\r\nDisplay aspect ratio           : 1.85:1\r\nFrame rate mode                : Constant\r\nFrame rate                     : 29.970 fps\r\nStandard                       : NTSC\r\nColor space                    : YUV\r\nChroma subsampling             : 4:2:0\r\nBit depth                      : 8 bits\r\nScan type                      : Progressive\r\nBits/(Pixel*Frame)             : 0.146\r\nStream size                    : 3.09 GiB (92%)\r\nLanguage                       : English\r\nDefault                        : Yes\r\nForced                         : No\r\nColor primaries                : BT.709\r\nTransfer characteristics       : BT.709\r\nMatrix coefficients            : BT.709\r\nColor range                    : Limited\r\n\r\nAudio\r\nID                             : 2\r\nFormat                         : AC-3\r\nFormat/Info                    : Audio Coding 3\r\nMode extension                 : CM (complete main)\r\nFormat settings, Endianness    : Big\r\nMuxing mode                    : Header stripping\r\nCodec ID                       : A_AC3\r\nDuration                       : 1h 52mn\r\nBit rate mode                  : Constant\r\nBit rate                       : 256 Kbps\r\nChannel(s)                     : 2 channels\r\nChannel positions              : Front: L R\r\nSampling rate                  : 48.0 KHz\r\nBit depth                      : 16 bits\r\nCompression mode               : Lossy\r\nStream size                    : 207 MiB (6%)\r\nLanguage                       : English\r\nDefault                        : Yes\r\nForced                         : No","torrent":{"xt":"urn:btih:a869dc3fb7f5beeb483ab8b2bc9487eb071492b4","amp;dn":"Alice+Through+the+Looking+Glass+2016+Unmarked+720P+TC+x264+Hive-","amp;tr":["udp%3A%2F%2Ftracker.leechers-paradise.org%3A6969","udp%3A%2F%2Fzer0day.ch%3A1337","udp%3A%2F%2Fopen.demonii.com%3A1337","udp%3A%2F%2Ftracker.coppersurfer.tk%3A6969","udp%3A%2F%2Fexodus.desync.com%3A6969"],"infoHash":"a869dc3fb7f5beeb483ab8b2bc9487eb071492b4","infoHashBuffer":{"type":"Buffer","data":[168,105,220,63,183,245,190,235,72,58,184,178,188,148,135,235,7,20,146,180]},"announce":[],"urlList":[]}}